<svg height="785.039" viewBox="0 0 624.836 785.039" width="624.836" xmlns="http://www.w3.org/2000/svg"><path d="m552.749 380.677c-32.65 29.9-83.9 23.63-112.19-28.07a15 15 0 0 1 26.32-14.4c33.95 62.04 102.63 24.78 82.13-70.92a15 15 0 0 1 11.18-17.72 3.577 3.577 0 0 1 .35-.09 15 15 0 0 1 17.81 11.53c12.151 56.75-1.77 97.84-25.6 119.67z" fill="#b2c2c4"/><path d="m552.749 380.677c-2.91-4.84-3.25-13.71 1.22-26.53 14.38-41.27 11.75-59.67 6.03-95.08q-.124-.767-.206-1.515l9.824-7.183a14.971 14.971 0 0 1 8.732 10.638c12.151 56.75-1.77 97.84-25.6 119.67z" fill="#d3e4e6"/><path d="m507.96 399.594a63.61 63.61 0 0 1 -10.4-.856c-23.335-3.87-43.891-20.082-57.882-45.651a16 16 0 0 1 28.074-15.361c13.533 24.73 33.7 35.26 52.638 27.481 12.693-5.215 22.814-18.422 27.768-36.237 5.786-20.8 4.577-46.7-3.5-74.9a1 1 0 1 1 1.923-.551c8.175 28.548 9.386 54.822 3.5 75.982-5.121 18.413-15.667 32.1-28.935 37.551-9.347 3.84-19.328 3.453-28.862-1.12-10.084-4.832-19.177-14.26-26.284-27.245a14 14 0 0 0 -24.566 13.44c13.69 25.018 33.739 40.871 56.456 44.638 19.266 3.194 39.016-2.938 54.181-16.826 12.749-11.678 40.734-46.624 25.3-118.723a1 1 0 1 1 1.956-.418c15.652 73.109-12.9 108.7-25.9 120.616-12.905 11.816-29.041 18.18-45.467 18.18z" fill="#670a39"/><path d="m553.624 396.122a1 1 0 0 1 -.564-1.826 71.59 71.59 0 0 0 8.013-6.357c11.083-10.152 19.551-24.226 24.487-40.7a1 1 0 1 1 1.916.574c-5.04 16.818-13.7 31.2-25.052 41.6a73.683 73.683 0 0 1 -8.237 6.534 1 1 0 0 1 -.563.175z" fill="#670a39"/><path d="m497.139 397.667c-20.26-3.543-41.471-17.443-56.58-45.06a15 15 0 0 1 26.32-14.4c7.94 14.51 18.25 24.25 29.29 28.32h-.01c-10.64 5.65-12.52 24.7.98 31.14z" fill="#670a39"/><path d="m497.139 398.667a1.02 1.02 0 0 1 -.173-.015c-23.072-4.035-43.417-20.217-57.284-45.565a16 16 0 0 1 28.074-15.361c7.74 14.146 17.685 23.78 28.759 27.863a1 1 0 0 1 .037 1.862c-4.9 2.646-8.092 8.7-7.955 15.1a15.554 15.554 0 0 0 8.972 14.217 1 1 0 0 1 -.43 1.9zm-43.439-67.25a14 14 0 0 0 -12.261 20.71c12.551 22.94 30.466 38.2 50.857 43.469a17.948 17.948 0 0 1 -5.696-13.006c-.14-6.506 2.7-12.512 7.357-15.867-10.779-4.6-20.411-14.252-27.953-28.036a14.019 14.019 0 0 0 -12.304-7.27z" fill="#670a39"/><path d="m464.571 300.746c-24.243-82.078-109.312-130.916-205.337-129.446l5.139-1.316-20.131 1.946q-7.643.53-15.346 1.482l-.258.025-.008.007a291.487 291.487 0 0 0 -47.207 9.954c-126.094 37.667-203.764 151.281-173.486 253.763 11.221 37.966 35.688 69.071 68.456 91.277a100.513 100.513 0 0 1 44.161 79.229q.087 2.305.116 4.614l32.3 17.1s16.6-63.5 29.173-97.064c20.082 23.764 70.321 28.74 108.954 17.2 119.869-35.788 205.237-141.317 173.474-248.771z" fill="#829a9e"/><path d="m127.269 615.777-6.6-3.5c-.4-32.68-14.46-59.58-35.99-77.58l-.79-6.52c27.725 20.008 42.86 51.81 43.38 87.6z" fill="#b2c2c4"/><path d="m18.6 427.837c7.36 29.52 17.209 50.24 36.979 70.93.335 11.659 10.7 21.16 16.931 26.96a175.153 175.153 0 0 1 -44-44.84v-.01a159.2 159.2 0 0 1 -20.57-43.72c-24.93-84.39 22.83-172.74 105.3-223.4-73.54 49-114.531 134.36-94.64 214.08z" fill="#b2c2c4"/><path d="m102.939 276.367-23.65 32.9s-6.38-.62-19.65-6.45c6.75-13.93-10.618-27.344-21.28-8.43l-6-2.69a233.963 233.963 0 0 1 22.78-29.78 38.288 38.288 0 0 1 2.71 3.03c-8.71 11.9 10.508 21.9 20.72 6.48 8.8 2.94 24.37 4.94 24.37 4.94z" fill="#b2c2c4"/><path d="m55.578 498.767c7.3 13.843 15.153 22.647 33.75 33.18 6.622 3.751 11.57 10.281 16.351 15.454l-8.095 7.407-43.946-25.7-13.3-28.94z" fill="#670a39"/><path d="m97.583 555.808a1 1 0 0 1 -.5-.137l-43.946-25.7a1 1 0 0 1 -.4-.446l-13.3-28.94a1 1 0 0 1 .817-1.413l15.243-1.406a1 1 0 0 1 .976.529c6.774 12.84 14.1 21.867 33.359 32.777 5.442 3.082 9.832 8.046 13.7 12.425.977 1.106 1.936 2.19 2.888 3.22a1 1 0 0 1 -.06 1.416l-8.095 7.408a1 1 0 0 1 -.682.267zm-43.168-27.4 43.037 25.165 6.814-6.235c-.738-.815-1.483-1.656-2.238-2.511-3.954-4.47-8.042-9.092-13.192-12.009-19.4-10.986-26.964-20.13-33.829-32.994l-13.173 1.214z" fill="#670a39"/><path d="m35.959 455.8c-2.57 7.37-5.13 16.25-7.45 25.08a157.425 157.425 0 0 1 -8.54-14.25 86.516 86.516 0 0 1 15.99-10.83z" fill="#670a39"/><path d="m28.508 481.877a1 1 0 0 1 -.829-.441 159.381 159.381 0 0 1 -8.594-14.336 1 1 0 0 1 .239-1.232 86.934 86.934 0 0 1 16.166-10.954 1 1 0 0 1 1.413 1.212c-2.307 6.615-4.8 15.028-7.427 25a1 1 0 0 1 -.8.732 1.058 1.058 0 0 1 -.168.019zm-7.275-15c2.112 3.939 4.42 7.828 6.879 11.6 2.118-7.931 4.154-14.827 6.07-20.562a84 84 0 0 0 -12.949 8.958z" fill="#670a39"/><path d="m266.93 758.021a180.476 180.476 0 0 1 -32.988-2.778c-16.837-3.193-28.729-8.968-35.347-17.166-6.111-7.571-7.619-17.132-4.48-28.418 2.907-10.479 7.788-18.268 14.92-23.812a1 1 0 0 1 1.227 1.58c-6.874 5.343-11.393 12.578-14.22 22.767-2.956 10.629-1.573 19.587 4.11 26.627 16.379 20.29 62.29 19.884 81.268 18.768 25.784-1.275 59.874-7.8 71.125-21.993 3.027-3.812 4.01-8.658 3.9-9.408a1.751 1.751 0 0 1 -.022-.306c1.172-13.669-9.6-23.594-18.84-29.513-32.084-20.548-94.964-25.824-122.329-10.263-.018.01-.036.02-.055.029a1.02 1.02 0 0 1 -.459.112 1 1 0 0 1 -.448-1.895c13.574-7.7 35.759-10.872 60.873-8.687 24.855 2.162 48 9.094 63.5 19.02 13.872 8.884 20.7 19.689 19.765 31.251.174 1.634-1.129 6.893-4.313 10.9-5.685 7.171-16.823 12.908-33.105 17.048a213.178 213.178 0 0 1 -39.479 5.7c-4.254.252-9.218.437-14.603.437z" fill="#670a39"/><path d="m357.419 723.967c.24.94-.89 6.22-4.09 10.25-12.5 15.77-50.4 21.31-71.85 22.37-43.02 2.53-97.94-5.16-86.4-46.66 5.743-20.7 17.574-25.374 19.57-26.62.01 0 .1-.07.11-.07 39.941-22.71 146.32-1.92 142.66 40.73z" fill="#b2c2c4"/><path d="m357.079 726.507v.02l-.01.01c0 1.091-1.52 4.875-3.74 7.68 18.08-27.44-43.4-53.64-93.61-49.32a96.962 96.962 0 0 0 -24.5 5.1l-12.23-10.34.07-.18v-.01l.02-.06c27.56-10.208 71.191-5.283 98.76 5.91a.694.694 0 0 1 .13.05c17.886 7.316 39.252 22.26 35.11 41.14z" fill="#829a9e"/><path d="m266.93 758.021a180.476 180.476 0 0 1 -32.988-2.778c-16.837-3.193-28.729-8.968-35.347-17.166-6.111-7.571-7.619-17.132-4.48-28.418 3.559-12.829 9.926-21.477 20.038-27.218a.969.969 0 0 1 .109-.071c13.572-7.718 35.769-10.89 60.9-8.7 24.855 2.162 48 9.094 63.5 19.02 13.872 8.884 20.7 19.689 19.765 31.251.174 1.634-1.129 6.893-4.313 10.9-5.685 7.171-16.823 12.908-33.105 17.048a213.178 213.178 0 0 1 -39.479 5.7c-4.251.247-9.215.432-14.6.432zm-51.681-73.913a1.027 1.027 0 0 1 -.109.072c-9.621 5.462-15.689 13.728-19.1 26.014-2.956 10.629-1.573 19.587 4.11 26.627 16.379 20.29 62.29 19.884 81.268 18.768 25.784-1.275 59.874-7.8 71.125-21.993 3.027-3.812 4.01-8.658 3.9-9.408a1.751 1.751 0 0 1 -.022-.306c1.172-13.669-9.6-23.594-18.84-29.513-32.084-20.548-94.964-25.824-122.329-10.263z" fill="#670a39"/><path d="m287.639 676.077c-.023 0-.4.048-.42.05-10.16 1.18-17.91 4.05-27.5 8.77.05-.1 5.42-10.849 5.42-10.95a181.823 181.823 0 0 1 22.5 2.13z" fill="#670a39"/><path d="m259.719 685.9a1 1 0 0 1 -.9-1.445l.072-.144c3.082-6.172 5.1-10.25 5.3-10.7a1 1 0 0 1 .971-.657 182.72 182.72 0 0 1 22.624 2.142 1 1 0 0 1 -.078 1.985l-.277.034-.12.014c-10.394 1.207-18.1 4.214-27.159 8.672a1 1 0 0 1 -.433.099zm6.041-10.929c-.467.993-1.51 3.09-3.838 7.755a80.707 80.707 0 0 1 18.866-6.586c-5.038-.607-10.068-.999-15.028-1.172z" fill="#670a39"/><path d="m267.349 676.987a209.237 209.237 0 0 1 -37.782 32.462c-6.994.106-20.151-22.654-19.909-22.81 55.529-35.8 85.193-96.32 83.591-170.682a15 15 0 0 1 14.68-15.32 5.145 5.145 0 0 1 .68.01 15.013 15.013 0 0 1 14.64 14.67c1.39 64.65-18.16 120.36-55.9 161.67z" fill="#b2c2c4"/><path d="m208.5 732.748c-10.783-15.322-6.158-33.59 11.247-38.642 13.23-3.841 23.5.519 28.953 4.627 28.294-3.227 95.839 8.454 99.161 24.008 2.219 10.392-14.8 17.8-32.7 21.247-53.729 10.348-94.461 6.103-106.661-11.24z" fill="#d3e4e6"/><path d="m271.293 672.54a16.366 16.366 0 0 1 -13.618 5.77c-9.191-.747-11.433-8.811-3.086-19.1a229.1 229.1 0 0 0 26.62-40.8c15-29.13 26.21-62.22 27.4-117.76a15.013 15.013 0 0 1 14.64 14.67c1.34 62.356-16.801 116.397-51.956 157.22z" fill="#d3e4e6"/><path d="m209.976 718.843c0 45.46-96.781 78.661-139.168 59.812a.082.082 0 0 0 -.041-.02 32.746 32.746 0 0 1 -10.669-7.28c-24.355-25.345 30.981-86.45 114.044-84.68a49.459 49.459 0 0 1 22.33 7c3.806 2.434 7.269 6.1 7.269 6.389 3.526 4.08 6.235 10.701 6.235 18.779z" fill="#b2c2c4"/><path d="m174.788 686.716c-4.056 1.428-10.736 3.821-13.132 6.257-60.825 2.791-112.579 47.379-105.856 72.055-11.32-26.368 39.142-79.934 118.344-78.353-.002-0 .224.01.644.041z" fill="#829a9e"/><path d="m171.235 686.654c-3 1.669-5.443 3.767-9.579 5.968a92.408 92.408 0 0 0 -22.559-3 163.856 163.856 0 0 1 32.138-2.968z" fill="#670a39"/><path d="m161.656 693.622a1 1 0 0 1 -.272-.038 90.609 90.609 0 0 0 -22.3-2.961 1 1 0 0 1 -.178-1.981 164.761 164.761 0 0 1 32.334-2.988 1 1 0 0 1 .481 1.874c-1.273.708-2.464 1.51-3.726 2.36a63.247 63.247 0 0 1 -5.87 3.617 1 1 0 0 1 -.469.117zm-13.546-4.477a83.871 83.871 0 0 1 13.427 2.406 62.629 62.629 0 0 0 5.341-3.322l.827-.556a164.755 164.755 0 0 0 -19.595 1.472z" fill="#670a39"/><path d="m100.759 784.951c-11.612 0-22.137-1.726-30.357-5.382l-.059-.028a35.193 35.193 0 0 1 -10.785-7.315l-.1-.106a.736.736 0 0 1 -.076-.072 23.519 23.519 0 0 1 -6.532-17.008c.173-7.214 3.424-14.829 9.4-22.021 35.25-42.433 85.25-47.877 111.913-47.344a50.3 50.3 0 0 1 22.848 7.16c2.448 1.566 6.423 4.948 7.47 6.592l.017-.015c4.117 4.763 6.478 11.845 6.478 19.431 0 14.94-10.5 29.99-29.567 42.378-23.185 15.064-54.641 23.73-80.65 23.73zm-29.525-7.2c8.011 3.558 18.272 5.239 29.6 5.239 25.576 0 56.593-8.568 79.49-23.445 18.479-12.007 28.656-26.461 28.656-40.7 0-7.112-2.183-13.718-5.991-18.123a1.016 1.016 0 0 1 -.167-.269 33.842 33.842 0 0 0 -6.885-5.931 48.19 48.19 0 0 0 -21.856-6.848c-26.253-.522-75.57 4.836-110.291 46.625-12.94 15.571-10.043 28.965-3 36.326.061.055.127.124.214.214a33.238 33.238 0 0 0 10.178 6.885z" fill="#670a39"/><path d="m294.9 520.587c-4.59 16.78-9.5 32.25-14.87 46.7a384.147 384.147 0 0 1 -28.56 60.96 376.664 376.664 0 0 1 -48.3 64.86q-6.12 6.66-12.68 13.25l-29.173-13.4c1-.955 1.089-1.043 2.073-2 42.677-41.372 67.483-81.2 84.56-123.667a498.874 498.874 0 0 0 18.01-54.62 15 15 0 0 1 28.94 7.91z" fill="#b2c2c4"/><path d="m294.9 520.587c-4.59 16.78-9.5 32.25-14.87 46.7a384.147 384.147 0 0 1 -28.56 60.96 374.231 374.231 0 0 1 -45.319 61.581 37.3 37.3 0 0 1 -9.612 7.711c-15.854 8.779-14.406-8.033 1.011-28.8 37.53-50.56 68.46-89.6 77.36-166.05a15 15 0 0 1 19.99 17.9z" fill="#d3e4e6"/><path d="m294.319 522.7a15 15 0 0 0 -29.05-7.45c-.31 1.15-.64 2.29-.98 3.44-.04.12-.07.24-.1.36a481.554 481.554 0 0 1 -16.18 48.11c11.038-9.783 25.869-9.783 31.24 2.24" fill="#670a39"/><path d="m279.249 570.4a1 1 0 0 1 -.913-.592 13.944 13.944 0 0 0 -10.017-8.367c-6.218-1.343-13.562 1.074-19.647 6.467a1 1 0 0 1 -1.592-1.12 479.822 479.822 0 0 0 16.146-48.011c.029-.115.066-.259.114-.4.327-1.109.655-2.241.963-3.383a16 16 0 0 1 30.988 7.944 1 1 0 1 1 -1.944-.468 14 14 0 0 0 -27.113-6.953c-.312 1.155-.644 2.3-.986 3.46-.043.129-.065.224-.089.32-4.676 16.49-9.546 31.173-14.853 44.779 5.912-4.144 12.6-5.848 18.435-4.586a16.078 16.078 0 0 1 11.421 9.506 1 1 0 0 1 -.913 1.408z" fill="#670a39"/><path d="m192.659 705.157a1 1 0 0 1 -.714-1.7c23.926-24.346 43.114-49.112 58.66-75.714a380.907 380.907 0 0 0 27.708-58.7c5.455-14.489 10.375-29.737 15.042-46.614l.254-.923c.109-.391.218-.783.324-1.178a14 14 0 0 0 -27.009-7.389c-.552 2.013-1.112 4.025-1.673 6.018-.046.141-.068.236-.092.332a482.136 482.136 0 0 1 -16.222 48.239c-19.063 47.458-46.577 87.436-86.589 125.815a1 1 0 1 1 -1.384-1.444c39.8-38.174 67.163-77.931 86.117-125.116a479.976 479.976 0 0 0 16.145-48.01c.029-.115.066-.259.114-.4.546-1.942 1.105-3.949 1.654-5.957a16 16 0 0 1 30.869 8.437c-.106.4-.216.795-.326 1.192l-.253.917c-4.684 16.94-9.623 32.244-15.1 46.79a382.836 382.836 0 0 1 -27.852 59c-15.631 26.746-34.917 51.641-58.96 76.106a1 1 0 0 1 -.713.299z" fill="#670a39"/><path d="m196.71 739.082c-18.742 20.737-60.032 38-101.472 37.812-26.71-.123-25.986-11.151-14.077-18.888 17.159-11.148 52.111-7.781 98.333-43.539a31.6 31.6 0 0 1 4.427-2.929c19.321-10.313 26.033 12.889 12.789 27.544z" fill="#d3e4e6"/><path d="m323.269 526.877q-.135 8.1-.73 16-.84 11.22-2.57 22.01c-4.43-10.85-20.01-12.36-30.69.94q1.74-9.12 2.72-18.64 1.035-9.945 1.25-20.29a16.1 16.1 0 0 1 30.02-.02z" fill="#670a39"/><path d="m289.278 566.827a1 1 0 0 1 -.981-1.187c1.133-5.942 2.044-12.185 2.707-18.557.688-6.613 1.107-13.412 1.245-20.206a1 1 0 0 1 .067-.341 17.1 17.1 0 0 1 31.885-.02.976.976 0 0 1 .067.378c-.088 5.286-.334 10.689-.732 16.057-.557 7.443-1.425 14.876-2.58 22.094a1 1 0 0 1 -1.913.22 12.591 12.591 0 0 0 -10.109-7.81c-6.531-.951-13.588 2.413-18.875 9a1 1 0 0 1 -.781.372zm4.967-39.73c-.143 6.79-.564 13.583-1.252 20.193-.54 5.2-1.245 10.308-2.1 15.244 5.4-5.362 12.051-7.972 18.327-7.059a14.591 14.591 0 0 1 10.216 6.29c.921-6.226 1.627-12.591 2.1-18.963.391-5.262.634-10.558.725-15.743a15.1 15.1 0 0 0 -28.021.038z" fill="#670a39"/><path d="m209.65 687.637a1 1 0 0 1 -.54-1.842c1.57-1 3.225-2.107 5.062-3.372 39.142-27.089 64.775-67.473 74.124-116.782 1.134-5.942 2.045-12.186 2.708-18.558.688-6.613 1.107-13.412 1.245-20.206.079-3.582.079-7.248 0-10.9a16 16 0 0 1 32-.684c.082 3.97.089 7.872.02 11.6-.088 5.285-.334 10.688-.732 16.056-.557 7.44-1.425 14.873-2.58 22.094-6.84 42.624-23.747 79.526-50.248 109.679a1.2 1.2 0 0 1 -.107.127c-2.764 3.154-5.73 6.318-8.815 9.4-.464.464-.911.911-1.368 1.358a1 1 0 0 1 -1.4-1.43c.452-.442.894-.884 1.336-1.326 3.079-3.079 6.023-6.219 8.764-9.35.016-.02.032-.04.049-.059 26.271-29.869 43.032-66.442 49.813-108.713 1.146-7.166 2.008-14.543 2.56-21.927.4-5.329.64-10.693.728-15.942.068-3.7.061-7.58-.02-11.522a14 14 0 1 0 -28 .6c.081 3.679.081 7.375 0 10.984-.138 6.848-.561 13.7-1.255 20.371-.669 6.428-1.588 12.728-2.732 18.724-9.449 49.836-35.367 90.659-74.953 118.055-1.857 1.279-3.531 2.394-5.121 3.41a.989.989 0 0 1 -.538.155z" fill="#670a39"/><path d="m225.439 554.757a183.059 183.059 0 0 1 -10.09 16.28c-15.56 22.1-37.88 45.68-62.38 58.34 2.15-41.84-10.25-77.62-43.22-104.65-.01-.01-.02-.01-.03-.02-.77-.64-1.55-1.27-2.35-1.89-49.69-38.96-70.93-93.02-67.46-147.26 4.23-66.09 45.14-132.44 115.97-172.05a274.914 274.914 0 0 1 53.27-22.7 257.736 257.736 0 0 1 101.03-10.59c80.29 7.87 148.44 55.13 169.6 129.12 39.87 139.3-105.65 271.263-254.34 255.42z" fill="#b2c2c4"/><g fill="#d3e4e6"><path d="m485.309 344.207a26.91 26.91 0 0 0 -7.93-7.29 157.247 157.247 0 0 0 -4.82-30.92 160.988 160.988 0 0 0 -7.08-21.15 44.583 44.583 0 0 0 2.19-15 166.891 166.891 0 0 1 14.79 44.52 170.906 170.906 0 0 1 2.85 29.84z"/><path d="m407.109 499.567c-.28.23-.55.46-.83.68-.14.12-.28.23-.42.34a255.9 255.9 0 0 1 -101.85 49.26 70.678 70.678 0 0 0 24.88-17.06c.68-.72 1.35-1.45 2.01-2.2a248.8 248.8 0 0 0 61.49-32.71 22.851 22.851 0 0 0 14.72 1.69z"/><path d="m313.319 170.717a145.573 145.573 0 0 0 -33.3 7.76 247.021 247.021 0 0 0 -55.36 8.64 252.276 252.276 0 0 0 -45.47 17.26c-3.19-5.13-11.14-6.89-23.31-.87a274.914 274.914 0 0 1 53.27-22.7 257.736 257.736 0 0 1 101.03-10.59c1.04.15 2.07.31 3.1.49a.06.06 0 0 1 .04.01z"/><path d="m258.812 488.515c-14.8 48.73-52.115 98.947-96.366 121.193-1.324-49.913-27.736-89.594-66.037-124.7z"/><path d="m392.389 497.877a248.8 248.8 0 0 1 -61.49 32.71q-9.675 3.54-19.71 6.28c-84.64 23.14-167.46.62-214.78-51.86a154.539 154.539 0 0 1 -35.09-65.04 151.439 151.439 0 0 1 -4.73-32.28c-2.76-72.85 46.4-145.61 122.6-183.31a252.276 252.276 0 0 1 45.47-17.26 247.021 247.021 0 0 1 55.36-8.64c83.14-3.31 156.96 37.59 185.46 106.37a160.988 160.988 0 0 1 7.08 21.15 157.247 157.247 0 0 1 4.82 30.92c3.38 62.34-31.06 121.62-84.99 160.96z"/></g><path d="m207.343 542.783c-32.23 2.09-63.3-2.91-90.64-14.48l-12.2-34.939c26.755 25.58 62.597 42.809 102.84 49.419z" fill="#b2c2c4"/><path d="m152.969 630.377a1 1 0 0 1 -.456-.11c-.018-.009-.065-.035-.086-.048l-.024-.012-.072-.038-.014-.008a.546.546 0 0 1 -.189-.1l-.034-.02-.041-.025-.038-.023-.015-.003c-1.71-.9-8.531-4.51-31.8-16.831a1 1 0 0 1 -.532-.872c-.375-30.645-13.029-57.928-35.632-76.825-2.061-1.735-4.829-3.724-8.034-6.027-12.4-8.913-31.149-22.384-48.325-47.993a.994.994 0 0 1 -.053-.089c-19.624-29.187-28.876-61.382-27.492-95.691 1.288-31.928 12.141-64.608 31.386-94.506a235.621 235.621 0 0 1 22.882-29.908 263.537 263.537 0 0 1 58.321-48.343 292 292 0 0 1 115.789-40.46.561.561 0 0 1 .059-.006c5.282-.585 26.422-2.584 35.281-3.417l.427-.04a1.011 1.011 0 0 1 .145 0c102.932-8.822 191.878 44.654 216.318 130.08 10.527 36.786 8.552 75.428-5.712 111.749-13.327 33.937-36.879 65.129-68.111 90.206-.147.125-.293.24-.44.356a256.929 256.929 0 0 1 -102.244 49.449 238.6 238.6 0 0 1 -78.246 5 217.308 217.308 0 0 1 -34.972 45.9c-12.4 12.382-25.4 22.251-37.588 28.541a1 1 0 0 1 -.458.114zm-.415-.1h.006zm.394-2.044.037.017c11.873-6.207 24.524-15.856 36.622-27.935a215.15 215.15 0 0 0 34.965-46.043 1 1 0 0 1 .978-.5 236.525 236.525 0 0 0 78.24-4.89 254.917 254.917 0 0 0 101.449-49.067c.136-.106.265-.208.4-.319l.024-.02c30.966-24.861 54.312-55.77 67.514-89.387 14.1-35.909 16.056-74.108 5.65-110.468-24.183-84.534-112.335-137.428-214.372-128.629a.9.9 0 0 1 -.127 0l-.285.027c-6.924.651-29.931 2.823-35.284 3.418h-.036a290 290 0 0 0 -114.951 40.175 261.593 261.593 0 0 0 -57.88 47.976 233.549 233.549 0 0 0 -22.692 29.65c-19.052 29.6-29.8 61.932-31.07 93.5-1.368 33.907 7.786 65.727 27.208 94.577a1.03 1.03 0 0 1 .055.09c16.96 25.259 35.5 38.583 47.777 47.4 3.238 2.327 6.035 4.336 8.153 6.119 22.908 19.152 35.8 46.742 36.337 77.738 22.849 12.1 29.577 15.659 31.274 16.552z" fill="#670a39"/><path d="m215.969 541.357c-23.9 13.2-47.08 20.83-68.6 24.04-90.92 13.57-152.08-51.76-111.41-109.6l1.12-.13 19.85 42.09-1.35 1.01a18.3 18.3 0 0 0 1.53 8.28c10.21 24.39 69.5 49.39 144.35 8.05a15 15 0 0 1 14.51 26.26z" fill="#829a9e"/><path d="m215.969 541.357c-23.9 13.2-47.08 20.83-68.6 24.04-42.24 4-74.47-9.24-90.89-28.93-13.61-16.33-11.82-30.51.63-29.42 10.21 24.39 69.5 49.39 144.35 8.05a15 15 0 0 1 14.51 26.26z" fill="#b2c2c4"/><path d="m123.339 568.159c-3.068 0-6.122-.091-9.124-.272-30.232-1.821-56.24-12.613-73.232-30.387-22.295-23.324-24.589-55.622-5.843-82.282a1 1 0 1 1 1.636 1.15c-9 12.8-13.213 27.037-12.188 41.18 1.022 14.091 7.191 27.428 17.841 38.57 16.642 17.409 42.179 27.982 71.906 29.773 4.394.264 8.9.333 13.4.205 28.541-.816 58.883-9.674 87.748-25.616a14 14 0 1 0 -13.538-24.51c-25.021 13.82-51.1 21.491-75.4 22.184-26.867.766-50.147-7.028-63.871-21.384-7.957-8.324-10.108-16.946-6.22-24.934a1 1 0 1 1 1.8.875c-3.54 7.272-1.566 14.9 5.867 22.676 13.334 13.949 36.069 21.521 62.368 20.768 23.991-.684 49.75-8.269 74.494-21.936a16 16 0 0 1 15.471 28.012c-29.142 16.1-59.8 25.039-88.657 25.864q-2.232.063-4.458.064z" fill="#670a39"/><path d="m223.26 405.9c.792-.094 1.584-.225 2.358-.388 20.6-4.121 34.479-28.542 32.09-56.542-.081-.887-.172-1.78-.283-2.677-.092-.746-.19-1.482-.306-2.213-4.265-28-23.735-48.586-44.837-47.628q-1.181.057-2.368.2c-22.554 2.762-37.846 29.443-34.163 59.615s24.949 52.383 47.509 49.633z" fill="#e7dcdc"/><path d="m219.443 407.129c-9.9 0-19.616-4.529-27.738-13.014-9.122-9.53-15.14-22.93-16.947-37.732-3.742-30.662 11.974-57.9 35.034-60.729.815-.1 1.635-.165 2.442-.2 21.785-1 41.513 19.851 45.874 48.476.116.737.217 1.484.31 2.242.112.907.2 1.811.286 2.708 2.441 28.608-11.7 53.374-32.889 57.614-.8.168-1.621.3-2.437.4a32.5 32.5 0 0 1 -3.935.235zm-5.713-109.713q-.7 0-1.4.032c-.757.037-1.53.1-2.295.192-21.962 2.689-36.9 28.933-33.288 58.5 1.754 14.376 7.58 27.371 16.406 36.591 8.75 9.142 19.4 13.466 29.989 12.172.757-.089 1.52-.215 2.269-.372 20.2-4.042 33.653-27.892 31.3-55.48-.08-.87-.17-1.752-.279-2.639-.091-.735-.188-1.459-.3-2.179-4.112-26.994-22.197-46.817-42.402-46.817z" fill="#670a39"/><path d="m225.618 405.509c20.6-4.121 34.479-28.542 32.09-56.542-.081-.887-.172-1.78-.283-2.677-.092-.746-.19-1.482-.306-2.213-4.265-28-23.735-48.586-44.837-47.628-18.861 4.006-31.081 29.629-27.527 58.717s21.588 51.026 40.863 50.343z" fill="#fff8ea"/><path d="m344.156 372.2c.828-.1 1.648-.244 2.449-.424 18.128-4.056 29.945-26.568 27.347-52.324q-.055-.62-.136-1.232c-.047-.419-.1-.836-.157-1.254-.075-.574-.166-1.144-.258-1.714s-.19-1.138-.288-1.7c-4.653-25.048-21.9-43.346-40.277-42.691q-1.23.048-2.459.2c-20.1 2.575-33.311 27.3-29.5 55.225s23.175 48.489 43.279 45.914z" fill="#e7dcdc"/><path d="m340.765 373.415c-19.318 0-37.236-20.182-40.883-46.991-2.248-16.49 1.4-32.85 9.77-43.765 5.531-7.217 12.654-11.569 20.6-12.587.843-.107 1.7-.178 2.547-.211 18.821-.668 36.567 18.035 41.3 43.509l.018.1c.093.534.188 1.076.275 1.619.093.58.185 1.159.262 1.743.055.422.111.846.159 1.271.053.405.1.829.138 1.255 2.648 26.251-9.442 49.208-28.124 53.388-.8.181-1.658.329-2.542.441a27.571 27.571 0 0 1 -3.52.228zm-6.977-101.571c-.305 0-.611 0-.916.016-.787.031-1.585.1-2.369.2-7.4.948-14.064 5.036-19.264 11.82-8.048 10.5-11.553 26.305-9.375 42.278 3.511 25.808 20.559 45.261 38.882 45.262a25.744 25.744 0 0 0 3.283-.21c.821-.1 1.614-.242 2.356-.408 17.7-3.96 29.118-25.991 26.571-51.248-.037-.41-.081-.808-.132-1.2-.049-.43-.1-.841-.158-1.252-.073-.566-.163-1.126-.253-1.686-.086-.535-.178-1.068-.27-1.593-4.488-24.175-20.868-41.979-38.355-41.979z" fill="#670a39"/><path d="m346.605 371.774c18.128-4.056 29.945-26.568 27.347-52.324q-.055-.62-.136-1.232c-.047-.419-.1-.836-.157-1.254-.075-.574-.166-1.144-.258-1.714s-.19-1.138-.288-1.7c-4.653-25.048-21.9-43.346-40.277-42.691-16.247 3.926-26.307 27.494-22.658 54.24s19.666 46.994 36.427 46.675z" fill="#fff8ea"/><ellipse cx="230.214" cy="349.185" fill="#670a39" rx="26.441" ry="43.084" transform="matrix(.99262676 -.12121104 .12121104 .99262676 -40.629 30.48)"/><path d="m233.458 393.071c-14.264 0-27.68-17.566-30.485-40.574-1.414-11.605.036-22.867 4.085-31.713 4.123-9.008 10.452-14.463 17.822-15.359 15.024-1.826 29.633 16.319 32.575 40.448 1.414 11.6-.036 22.866-4.085 31.712-4.123 9.009-10.452 14.463-17.822 15.359a17.265 17.265 0 0 1 -2.09.127zm-6.458-85.771a15.676 15.676 0 0 0 -1.883.114c-6.653.809-12.422 5.854-16.245 14.206-3.9 8.515-5.288 19.4-3.917 30.639 2.808 23.034 16.415 40.4 30.348 38.7 6.653-.809 12.422-5.854 16.244-14.206 3.9-8.515 5.289-19.4 3.918-30.638-2.677-21.995-15.212-38.815-28.465-38.815z" fill="#670a39"/><ellipse cx="349.646" cy="321.299" fill="#670a39" rx="22.997" ry="38.821" transform="matrix(.99375235 -.11160769 .11160769 .99375235 -33.677 41.033)"/><path d="m352.454 360.963c-12.559 0-24.317-16.088-26.659-37.013-1.173-10.481.15-20.619 3.724-28.547 3.653-8.1 9.228-12.959 15.7-13.678 13.146-1.463 25.837 15.1 28.278 36.923 1.173 10.481-.15 20.619-3.724 28.546-3.653 8.1-9.228 12.96-15.7 13.679a14.681 14.681 0 0 1 -1.619.09zm-5.581-77.33a13.015 13.015 0 0 0 -1.434.079c-5.74.638-10.746 5.082-14.1 12.514-3.428 7.605-4.693 17.372-3.559 27.5 2.319 20.725 14.016 36.5 26.069 35.157 5.74-.637 10.746-5.081 14.1-12.513 3.429-7.605 4.693-17.372 3.559-27.5-2.227-19.902-13.1-35.237-24.635-35.237z" fill="#670a39"/><ellipse cx="236.783" cy="320.738" fill="#fff8ea" rx="7.94" ry="10.823" transform="matrix(.95167484 -.30710748 .30710748 .95167484 -87.059 88.218)"/><path d="m238.257 332.328a8.655 8.655 0 0 1 -5.053-1.772 14.747 14.747 0 0 1 -5.064-15.692 7.55 7.55 0 0 1 12.221-3.944 13.989 13.989 0 0 1 4.93 7.072c2 6.2-.186 12.483-4.877 14a7 7 0 0 1 -2.157.336zm-2.957-21.177a4.978 4.978 0 0 0 -1.534.239 6.048 6.048 0 0 0 -3.728 4.105 12.761 12.761 0 0 0 4.337 13.44 6.05 6.05 0 0 0 5.424 1.151c3.642-1.175 5.252-6.325 3.589-11.479a11.989 11.989 0 0 0 -4.2-6.066 6.7 6.7 0 0 0 -3.888-1.39z" fill="#670a39"/><ellipse cx="354.253" cy="293.805" fill="#fff8ea" rx="6.68" ry="9.105" transform="matrix(.95167484 -.30710748 .30710748 .95167484 -73.111 122.993)"/><path d="m355.493 303.715a7.438 7.438 0 0 1 -4.343-1.521 12.568 12.568 0 0 1 -4.318-13.38 6.51 6.51 0 0 1 10.525-3.4 11.923 11.923 0 0 1 4.2 6.03 11.926 11.926 0 0 1 .113 7.35 6.874 6.874 0 0 1 -4.318 4.625 6.051 6.051 0 0 1 -1.859.296zm-2.487-17.815a4.01 4.01 0 0 0 -1.242.193 4.933 4.933 0 0 0 -3.034 3.352 10.579 10.579 0 0 0 3.591 11.129 4.527 4.527 0 0 0 7.456-2.406 9.923 9.923 0 0 0 -.118-6.106 9.916 9.916 0 0 0 -3.473-5.023 5.482 5.482 0 0 0 -3.18-1.139z" fill="#670a39"/><path d="m248.121 305.193a1 1 0 0 1 -.89-.542c-8.146-15.79-21.986-26.884-37.021-29.677-11.137-2.068-21.473.532-29.105 7.323a1 1 0 0 1 -1.329-1.494c7.986-7.106 19.212-9.947 30.8-7.8 15.639 2.9 30.006 14.391 38.434 30.726a1 1 0 0 1 -.888 1.459z" fill="#670a39"/><path d="m219.591 407.132a36.846 36.846 0 0 1 -21.332-7.328c-12.674-9.065-21.24-24.891-23.5-43.421-3.742-30.662 11.974-57.9 35.034-60.729 22.567-2.675 43.785 18.53 48.316 48.272 4.137 26.149-7.031 57.506-32.289 62.563a30.255 30.255 0 0 1 -6.229.643zm-5.942-109.706a30.81 30.81 0 0 0 -3.617.214c-21.962 2.689-36.9 28.933-33.288 58.5 2.193 17.975 10.459 33.3 22.678 42.036 8.238 5.892 17.468 8.149 25.99 6.354h.01c18.763-3.753 35.839-27.873 30.709-60.3-4.121-27.055-22.386-46.804-42.482-46.804z" fill="#670a39"/><path d="m340.765 373.415c-19.318 0-37.236-20.182-40.883-46.991-2.248-16.49 1.4-32.85 9.77-43.765 5.531-7.217 12.654-11.569 20.6-12.587.843-.107 1.7-.178 2.547-.211 18.821-.668 36.567 18.035 41.3 43.509l.018.1c.093.534.188 1.076.275 1.619.093.58.185 1.159.262 1.743.055.422.111.846.159 1.271.053.405.1.829.138 1.255 2.648 26.251-9.442 49.208-28.124 53.388-.8.181-1.658.329-2.542.441a27.571 27.571 0 0 1 -3.52.228zm-6.977-101.571c-.305 0-.611 0-.916.016-.787.031-1.585.1-2.369.2-7.4.948-14.064 5.036-19.264 11.82-8.048 10.5-11.553 26.305-9.375 42.278 3.511 25.808 20.559 45.261 38.882 45.262a25.744 25.744 0 0 0 3.283-.21c.821-.1 1.614-.242 2.356-.408 17.7-3.96 29.118-25.991 26.571-51.248-.037-.41-.081-.808-.132-1.2-.049-.43-.1-.841-.158-1.252-.073-.566-.163-1.126-.253-1.686-.086-.535-.178-1.068-.27-1.593-4.488-24.175-20.868-41.979-38.355-41.979z" fill="#670a39"/><path d="m355.408 274.867c-27.555.7-42.642 30.417-55.873 26.964-6.9-1.8-7.847-8.786-3.928-13.053l23.38-31.711 29.195 6.18z" fill="#d3e4e6"/><path d="m301.793 303.118a9.877 9.877 0 0 1 -2.511-.32 8.908 8.908 0 0 1 -6.638-5.958 9.222 9.222 0 0 1 2.226-8.739 1 1 0 1 1 1.473 1.353 7.213 7.213 0 0 0 -1.78 6.821 6.872 6.872 0 0 0 5.224 4.588c5.536 1.444 11.566-3.346 19.2-9.413 10.994-8.734 24.673-19.6 44.325-17.442a1 1 0 0 1 -.212 1.992c-18.833-2.073-32.156 8.514-42.863 17.02-6.763 5.366-12.719 10.098-18.444 10.098z" fill="#670a39"/><path d="m262.736 422.556q-.613 1.082-1.141 2.194c-7.227 15.275-1.511 26.789 5.579 32.008a20.881 20.881 0 0 0 6.269 3.156c10.487 3.219 21.054-2.249 27.3-13.734" fill="#d3e4e6"/><path d="m279.361 461.813a21.115 21.115 0 0 1 -6.212-.943 21.916 21.916 0 0 1 -6.568-3.306c-7.4-5.445-13.376-17.417-5.89-33.242.362-.764.758-1.525 1.176-2.26a1 1 0 0 1 1.738.988c-.393.692-.765 1.408-1.106 2.128-6.967 14.725-1.516 25.781 5.268 30.775a19.9 19.9 0 0 0 5.969 3.005c10 3.069 20.013-2.01 26.13-13.256a1 1 0 0 1 1.757.956c-5.254 9.659-13.566 15.155-22.262 15.155z" fill="#670a39"/><path d="m292.908 438.264c3.175-8.677 2.311-20.022 6.147-28.307-10.953 3.19-23.913 10.323-28.121 20.967-7.779 19.176 14.731 27.142 21.974 7.34z" fill="#670a39"/><path d="m279.583 450.761a10.891 10.891 0 0 1 -8.6-4.122c-3.163-3.964-3.52-9.83-.98-16.091 4.339-10.974 17.707-18.33 28.769-21.552a1 1 0 0 1 1.187 1.381c-2 4.315-2.7 9.662-3.385 14.834-.6 4.562-1.224 9.28-2.73 13.4-2.469 6.748-6.976 11.122-12.367 12a11.791 11.791 0 0 1 -1.894.15zm17.741-39.22c-10.16 3.349-21.638 10.084-25.46 19.751-2.264 5.58-2.013 10.717.687 14.1a9 9 0 0 0 8.608 3.24c4.657-.758 8.6-4.662 10.81-10.712 1.431-3.909 2.038-8.516 2.626-12.971.605-4.565 1.222-9.265 2.729-13.408z" fill="#670a39"/><path d="m271.569 430.472a.988.988 0 0 1 -.427-.1 1 1 0 0 1 -.476-1.331c2.743-5.8 8.195-10.879 16.664-15.534a39.757 39.757 0 0 1 10.208-4.174c.429-.115.838-.224 1.239-.341a55.779 55.779 0 0 1 7.944-1.417 1 1 0 1 1 .216 1.988 54.739 54.739 0 0 0 -7.6 1.347c-.417.123-.842.236-1.288.355a37.993 37.993 0 0 0 -9.759 4c-8.089 4.445-13.263 9.233-15.82 14.636a1 1 0 0 1 -.901.571z" fill="#670a39"/><path d="m276.679 449.36c4.64 1.427 9.079-.666 12.34-4.413-.227-6.553-7.026-16.143-15.77-18.407-5.601 8.169-5.649 20.042 3.43 22.82z" fill="#ec4949"/><path d="m279.632 450.809a11.025 11.025 0 0 1 -3.245-.492 10.681 10.681 0 0 1 -7.206-6.927c-1.785-5.1-.511-11.94 3.243-17.415a1 1 0 0 1 1.076-.4c9.006 2.332 16.275 12.311 16.518 19.34a1 1 0 0 1 -.245.691c-2.962 3.401-6.532 5.203-10.141 5.203zm-5.952-23.109c-3.053 4.8-4.106 10.753-2.611 15.028a8.746 8.746 0 0 0 5.9 5.674c3.764 1.156 7.763-.234 11.025-3.815-.452-6.13-6.605-14.508-14.314-16.887z" fill="#670a39"/><path d="m332.749 451.287a49.344 49.344 0 0 1 -4.12 8.75 99.941 99.941 0 0 1 -23.74 27.35c-.01.01-.01.01-.02.01-.62.51-1.25 1-1.88 1.48 3.28 4.97 3.21 15.17-2.03 22.54 4.66 3.28 4.46 14.27-2.99 23.53-8.59 10.68-22.6 16.69-31.11 19.81-.24.09-.49.18-.73.26h-.01c-23.18 8.24-45.09 5.5-58.91-5.83l-14.74-29.56a60.049 60.049 0 0 1 .86-15.01v-.02a37.438 37.438 0 0 1 4.53-11.45c8.59-14.67 25.14-24.97 26.91-30.55 3.27-10.41-16.29-25.54-3.45-37 1.8-1.6 4.78-2.56 8.28-2.72 8.67-.41 20.52 4.01 25.66 15.35 5.58 12.3 5.09 26.06.91 38.29 15.37-3.12 34.97-14.11 47.98-35.95a28.373 28.373 0 0 1 10.79-10.67c5.68-3.04 11.65-3.18 15.8-.51a7.967 7.967 0 0 1 2.42 2.45c2.8 4.37 2.3 11.88-.41 19.45z" fill="#b2c2c4"/><path d="m256.169 476.517a70.04 70.04 0 0 0 -15.881 6.366c3.441-20.548-1.619-26.806-13.919-41.2-7.035-8.238.91-20.631 11.26-17.917 21.528 5.65 25.707 31.782 18.54 52.751z" fill="#d3e4e6"/><path d="m332.749 451.287a49.344 49.344 0 0 1 -4.12 8.75 99.941 99.941 0 0 1 -23.74 27.35c-.01.01-.01.01-.02.01-.62.51-1.25 1-1.88 1.48 3.28 4.97 3.21 15.17-2.03 22.54 4.66 3.28 4.46 14.27-2.99 23.53-8.59 10.68-22.6 16.69-31.11 19.81-.24.09-.49.18-.73.26h-.01c-47.71 10.79-59.35-48.96-3.12-74.14 25.423-11.381 40.016-22.4 49.745-45.371a12.666 12.666 0 0 1 14.574-7.593 11.584 11.584 0 0 1 3.421 1.474 7.967 7.967 0 0 1 2.42 2.45c2.8 4.37 2.3 11.88-.41 19.45z" fill="#d3e4e6"/><path d="m332.752 451.284a38.465 38.465 0 0 0 .411-19.448c2.8 4.372 2.296 11.884-.411 19.448z" fill="#b9acc0"/><path d="m239.845 560.783c-14.295 0-27.036-4.507-35.955-13.231a1 1 0 0 1 1.4-1.43c13.8 13.5 37.255 16.444 61.218 7.7 14.12-5.171 24.444-11.731 30.683-19.5 5.119-6.379 6.331-13 5.758-17.07a7.222 7.222 0 0 0 -2.565-5.027 1 1 0 0 1 -.238-1.4c5-7.03 5.085-16.741 2.019-21.4a1 1 0 0 1 .228-1.344 99.7 99.7 0 0 0 25.389-28.559c6.434-10.772 8.941-25.114 2.419-29.3a12.876 12.876 0 0 0 -9.976-1.3c-5.894 1.386-11.439 5.814-15.216 12.147-12.823 21.53-30.494 30.492-39.885 33.917a60.715 60.715 0 0 1 -8.754 2.5 1 1 0 0 1 -1.146-1.3c4.48-13.106 4.173-26.443-.864-37.554-4.68-10.319-14.34-13.375-18.277-14.209-5.765-1.223-11.427-.454-14.087 1.913a1.25 1.25 0 0 1 -.115.1c-6.979 6.326-3.464 13.663.257 21.43 2.58 5.385 5.016 10.471 3.576 15.032-.841 2.68-4.3 5.9-9.09 10.361-8.276 7.707-19.605 18.256-22.3 31.465 0 .02 0 .039-.007.056a59.831 59.831 0 0 0 -.848 14.772 1 1 0 0 1 -2 .15 61.791 61.791 0 0 1 .864-15.217.85.85 0 0 1 .014-.1c2.8-13.867 14.423-24.691 22.91-32.594 4.219-3.928 7.862-7.321 8.546-9.5 1.2-3.809-1.068-8.549-3.473-13.566-3.7-7.722-7.891-16.473.237-23.807a1.006 1.006 0 0 1 .115-.089c3.141-2.807 9.355-3.74 15.813-2.371a27.415 27.415 0 0 1 19.682 15.34c5.033 11.1 5.545 24.3 1.483 37.35a59.467 59.467 0 0 0 6.772-2.046c9.144-3.335 26.348-12.065 38.855-33.063 4.053-6.8 10.058-11.56 16.476-13.07a14.837 14.837 0 0 1 11.514 1.561c7.741 4.963 5.1 20.476-1.782 32a101.629 101.629 0 0 1 -25.182 28.574c3.46 6.258 1.855 16.036-2.021 22.091a9.636 9.636 0 0 1 2.634 5.757c.805 5.721-1.563 12.848-6.18 18.6-6.561 8.168-16.883 14.75-31.555 20.123a80.161 80.161 0 0 1 -27.346 5.108z" fill="#670a39"/><path d="m275.589 529.113a1 1 0 0 1 -.306-1.953c11.534-3.7 20.855-10.013 25.572-17.321 3.458-5.357 4.855-15.062 1.333-20.423a1 1 0 1 1 1.671-1.1c4 6.093 2.548 16.608-1.323 22.606-4.964 7.69-14.675 14.3-26.642 18.141a1.011 1.011 0 0 1 -.305.05z" fill="#670a39"/><path d="m267.869 508.826a1 1 0 0 1 -.361-1.933c28.739-11.1 47.326-25.707 60.267-47.367 6.436-10.772 8.946-25.116 2.426-29.3a1 1 0 1 1 1.08-1.683c6.16 3.953 7.175 17.007-1.789 32.009-13.185 22.07-32.08 36.938-61.263 48.207a1 1 0 0 1 -.36.067z" fill="#670a39"/><path d="m240.289 483.883a1 1 0 0 1 -.48-1.878 71.141 71.141 0 0 1 16.088-6.447 1 1 0 1 1 .545 1.925 69.324 69.324 0 0 0 -15.676 6.278.993.993 0 0 1 -.477.122z" fill="#670a39"/><path d="m602.957 254.316c-11.278 10.914-26.457 15.252-41.335 13.577a58.077 58.077 0 0 1 -34.156-16.365c-20.287-13.847-29.89-36.975-27.32-56.431 2.486-18.883 17.083-27.247 28.923-22.118 14.742-16.511 28.517-23.846 41.854-22.327.833.094 1.644.218 2.435.385a26.945 26.945 0 0 1 16.771 10.508 25.793 25.793 0 0 1 17.676 6.492 25.13 25.13 0 0 1 3.059 3.329c4.245 5.514 6.492 13.057 6.013 21.848-.01.437-.041.885-.083 1.332a30.211 30.211 0 0 1 5.878 15.1v.021c1.488 13.333-4.39 29.824-19.715 44.649z" fill="#b2c2c4"/><path d="m548.659 237.932h-.039a1 1 0 0 1 -.961-1.037c.055-1.468.109-6.568-1.531-10.587a1 1 0 1 1 1.852-.756c1.792 4.391 1.737 9.85 1.677 11.419a1 1 0 0 1 -.998.961z" fill="#670a39"/><path d="m602.957 254.316a49.525 49.525 0 0 1 -26.826 13.221c-3.61 3.094-12.885 2.948-14.788.324-4.14-5.285-6.832-25.263 14.533-35.767.01 0 .01-.011.021-.011a37.511 37.511 0 0 0 7.646-4.91 1.6 1.6 0 0 0 .136-.115 66.011 66.011 0 0 0 8.978-9.1l22.171-20.891a27.475 27.475 0 0 1 7.844 12.578v.021c1.488 13.334-4.39 29.825-19.715 44.65z" fill="#d3e4e6"/><path d="m592.741 222.03a23.51 23.51 0 0 1 -12.12 29.56c-.54.24-1.09.47-1.65.679a23.505 23.505 0 0 1 -30.25-13.77c-17.28-46.179-18.24-93.33-2.86-140.119 6.92-21.03 5.89-37.51-2.81-45.19-6.76-5.981-18.45-6.63-29.08-1.62-8.39 3.96-27.76 17.23-26.46 54.849a23.5 23.5 0 1 1 -46.97 1.631c-1.43-41.35 14.87-72.85 39.4-90.69a85.942 85.942 0 0 1 13.98-8.3c58.79-27.74 124.74 18.359 96.59 104-11.96 36.38-11.211 73.05 2.23 108.97z" fill="#ff6d6d"/><path d="m570.762 254.76a24.548 24.548 0 0 1 -22.978-15.91c-17.361-46.4-18.328-93.764-2.873-140.782 6.79-20.636 5.871-36.72-2.522-44.128-6.466-5.721-17.715-6.31-27.992-1.466-8.209 3.875-27.166 16.885-25.887 53.911a24.527 24.527 0 0 1 -23.634 25.334c-.263.008-.526.012-.786.012a24.577 24.577 0 0 1 -24.548-23.647c-1.342-38.794 13.168-72.157 39.811-91.533a87.18 87.18 0 0 1 14.141-8.4c28.593-13.487 59.606-10.151 80.94 8.696 11.1 9.813 18.692 23.271 21.943 38.918 3.6 17.341 1.949 36.723-4.916 57.607-11.889 36.163-11.143 72.6 2.216 108.307a24.6 24.6 0 0 1 -12.636 30.821c-.572.255-1.14.492-1.719.709a24.406 24.406 0 0 1 -8.56 1.551zm-42.4-207.541c5.971 0 11.439 1.761 15.351 5.222 9.02 7.962 10.149 24.82 3.1 46.251-15.31 46.575-14.352 93.5 2.846 139.457a22.536 22.536 0 0 0 28.964 13.184c.54-.2 1.072-.425 1.594-.657a22.591 22.591 0 0 0 11.589-28.3c-13.522-36.141-14.277-73.027-2.243-109.633 12.928-39.329 6.931-73.737-16.451-94.4-20.727-18.312-50.907-21.524-78.764-8.379a85.238 85.238 0 0 0 -13.818 8.2c-26.1 18.981-40.308 51.729-38.99 89.848a22.5 22.5 0 1 0 44.971-1.561c-1.32-38.213 18.465-51.745 27.033-55.788a35.053 35.053 0 0 1 14.819-3.444z" fill="#670a39"/><path d="m592.741 222.03a23.51 23.51 0 0 1 -12.12 29.56 23.52 23.52 0 0 0 6.12-25.56c-13.44-35.92-14.19-72.59-2.23-108.97 18.54-56.41-5.24-85.291-16.33-95.09-20.96-18.52-52.47-22.02-80.26-8.91a85.02 85.02 0 0 0 -7.98 4.3 85.942 85.942 0 0 1 13.98-8.3c58.79-27.74 124.74 18.359 96.59 104-11.96 36.38-11.211 73.05 2.23 108.97z" fill="#df5468"/><path d="m570.724 254.775a24.545 24.545 0 0 1 -22.937-15.927c-17.361-46.4-18.328-93.766-2.874-140.781 6.783-20.636 5.865-36.721-2.52-44.13-6.474-5.721-17.724-6.309-27.992-1.464-8.213 3.875-27.175 16.884-25.889 53.914a24.5 24.5 0 1 1 -48.971 1.7c-1.593-45.882 18.575-83.238 53.95-99.928 28.594-13.492 59.609-10.159 80.945 8.693 11.1 9.813 18.691 23.27 21.942 38.915 3.6 17.34 1.949 36.72-4.915 57.6-11.888 36.164-11.142 72.6 2.216 108.307a24.533 24.533 0 0 1 -22.955 33.1zm-42.362-207.558c5.969 0 11.439 1.761 15.356 5.222 9.011 7.963 10.14 24.822 3.1 46.253-15.308 46.572-14.351 93.491 2.847 139.455a22.5 22.5 0 0 0 42.146-15.77c-13.522-36.14-14.276-73.026-2.243-109.632 12.926-39.326 6.93-73.731-16.452-94.394-20.731-18.317-50.916-21.529-78.771-8.384-34.63 16.339-54.37 52.993-52.805 98.05a22.5 22.5 0 1 0 44.973-1.561c-1.327-38.218 18.464-51.748 27.034-55.792a35.026 35.026 0 0 1 14.815-3.447z" fill="#670a39"/><path d="m617.741 194.317-2.913 2.747-22.171 20.891a66.011 66.011 0 0 1 -8.978 9.1 1.6 1.6 0 0 1 -.136.115c-18.9 15.324-33.011 3.578-29.3-11.5l-32.243-33.193c20.08-26.321 38.276-36.32 55.828-30.8 5.493 1.737 9.3 5.348 13.223 9.6 16.91-.023 28.323 13.647 26.69 33.04z" fill="#b2c2c4"/><path d="m589.931 161.295c-13.317.489-29.859 9.374-46.089 30.39-3.62 4.682-6.19 10.081-6.076 14.992l-.01.01s-2.9-.322-6.149-20.7c5.639-18.362 23.5-30.223 41.751-34.946a26.865 26.865 0 0 1 16.573 10.254z" fill="#d3e4e6"/><path d="m616.877 193.2c-10.445-12.256-31.045-13.962-54.412 8.905-4.921 4.818-7.6 10.009-8.479 14.785q-7.569 2.574-16.23 5.472a85.367 85.367 0 0 1 42.427-51.114 32.855 32.855 0 0 1 30.681.114c4.245 5.518 6.492 13.05 6.013 21.838z" fill="#d3e4e6"/><path d="m542.52 216.874a.991.991 0 0 1 -.61-.209 12.411 12.411 0 0 1 -5.143-9.97c-.11-4.69 2.122-10.24 6.284-15.622 14.893-19.284 31.529-30.215 46.844-30.777 8.22-.3 15.636 2.557 20.878 8.051 6.017 6.307 8.846 15.56 7.964 26.054a1 1 0 1 1 -1.993-.168c.833-9.915-1.8-18.618-7.418-24.5-4.912-5.148-11.6-7.719-19.358-7.434-14.71.541-30.81 11.195-45.335 30-3.882 5.021-5.966 10.12-5.867 14.358a10.5 10.5 0 0 0 4.366 8.428 1 1 0 0 1 -.612 1.792z" fill="#670a39"/><path d="m614.828 197.064-22.171 20.891a66.011 66.011 0 0 1 -8.978 9.1c-15.4 7.231-30.026-9.967-3.215-29.172 13.192-9.444 26.051-8.248 34.364-.819z" fill="#d3e4e6"/><path d="m566.86 235.325a14.938 14.938 0 0 1 -6.063-1.195c-6.182-2.759-9.242-9.6-7.8-17.419 1-5.385 4.028-10.681 8.764-15.316 15.9-15.557 28.877-18.388 36.977-18.02a25.755 25.755 0 0 1 18.895 9.18c.3.357.6.723.895 1.1a1 1 0 1 1 -1.584 1.222c-.271-.352-.553-.694-.834-1.025a23.8 23.8 0 0 0 -17.462-8.478c-7.7-.349-20.105 2.4-35.489 17.451-4.439 4.346-7.273 9.274-8.195 14.252-1.273 6.881 1.334 12.859 6.643 15.228 10.31 4.6 23.349-5.921 32.115-17.3a1 1 0 0 1 .541-.358 3.776 3.776 0 0 1 3.336.44 3.339 3.339 0 0 1 1.3 2.677 1 1 0 0 1 -2 .092 1.509 1.509 0 0 0 -.485-1.159 1.749 1.749 0 0 0 -1.328-.184c-12.062 15.543-22.005 18.812-28.226 18.812z" fill="#670a39"/><path d="m558.907 219.588a15.318 15.318 0 0 1 -7.408 5.483v-.011a15.955 15.955 0 0 1 -3.527.791.479.479 0 0 1 -.135.011c-8.323 1-16.875-5.015-22.732-11.122l-24.023-19.882c2.435-18.467 16.449-26.883 28.132-22.441a19.715 19.715 0 0 1 6.347 3.964c6.689 6.138 21.536 22.16 23.023 24.022a15.761 15.761 0 0 1 .323 19.185z" fill="#b2c2c4"/><path d="m558.724 200.58c8.041 10.306-3.4 24.393-15.354 19.11-10.658-4.709-20.533-17.679-21.366-31.116a19.991 19.991 0 0 1 1.715-9.928 7.531 7.531 0 0 1 11.783-2.319l.059.054c6.689 6.138 21.536 22.16 23.023 24.022z" fill="#d3e4e6"/><path d="m547.053 226.929a1 1 0 0 1 -.049-2 14.775 14.775 0 0 0 9.917-24.922c-1.477-1.547-3.244-3.467-5.115-5.5-4.9-5.322-10.993-11.946-16.92-17.393a17.093 17.093 0 0 0 -17.849-3.819c-7.959 2.89-13.551 11-14.96 21.7a1 1 0 1 1 -1.983-.261c1.508-11.449 7.587-20.165 16.26-23.314a19.278 19.278 0 0 1 19.885 4.226c5.989 5.5 12.116 12.162 17.039 17.512 1.864 2.026 3.625 3.939 5.089 5.473a16.775 16.775 0 0 1 -11.262 28.3z" fill="#670a39"/><path d="m546.158 226.939c-6.175 0-13.7-3.093-21.776-11.517a1 1 0 0 1 1.443-1.385c8.336 8.69 21.335 15.713 30.538 6.905a14.674 14.674 0 0 0 .558-20.934 1 1 0 1 1 1.446-1.381c7.139 7.476 5.236 18.154-.621 23.76a16.575 16.575 0 0 1 -11.588 4.552z" fill="#670a39"/><path d="m575.438 268.592a1 1 0 0 1 -.123-1.992 48.449 48.449 0 0 0 27.893-13.243c16.7-16.163 26.786-41.427 13.735-58.442a1 1 0 0 1 -.2-.692c.815-9.706-1.713-18.285-7.118-24.155a24.429 24.429 0 0 0 -18.513-7.763h-.038a1 1 0 0 1 -.8-.4 26.3 26.3 0 0 0 -18.523-10.5c-13.041-1.483-26.451 5.716-41 22.007a1 1 0 0 1 -1.144.251 17.166 17.166 0 0 0 -15.4.949c-6.486 3.674-10.908 11.1-12.13 20.381-2.684 20.371 8.122 42.662 26.89 55.47a.925.925 0 0 1 .137.113 57.458 57.458 0 0 0 26.057 14.719 1 1 0 0 1 -.494 1.938 59.454 59.454 0 0 1 -26.9-15.168c-19.33-13.231-30.449-36.26-27.672-57.333 1.305-9.906 6.09-17.874 13.128-21.86a19.175 19.175 0 0 1 16.511-1.32c14.83-16.438 28.652-23.679 42.241-22.135a28.249 28.249 0 0 1 19.595 10.893 26.658 26.658 0 0 1 19.524 8.405c5.716 6.209 8.434 15.179 7.671 25.294 5.446 7.3 7.316 17.1 5.266 27.64-2.249 11.561-8.969 23.024-19.432 33.148a50.43 50.43 0 0 1 -29.033 13.789.912.912 0 0 1 -.128.006z" fill="#670a39"/><path d="m477.379 336.917c-7.39-4.3-16.36-3.75-24.88 3.77-46.05 40.62-61.15 84.53-69.71 131.72-2.31 12.75 2.04 21.6 9.6 25.47a248.8 248.8 0 0 1 -61.49 32.71c9.34-10.56 16.43-24.07 21.95-39.82 19.93-65.5 56.04-129.81 104.84-191.61a46.121 46.121 0 0 0 7.79-14.31 160.988 160.988 0 0 1 7.08 21.15 157.247 157.247 0 0 1 4.82 30.92z" fill="#fff8ed"/><path d="m109.749 524.727c-.01-.01-.02-.01-.03-.02-.77-.64-1.55-1.27-2.35-1.89-49.69-38.96-70.93-93.02-67.46-147.26 2.04 11.83 9.32 15.34 16.68 12.13a151.439 151.439 0 0 0 4.73 32.28 154.539 154.539 0 0 0 35.09 65.04c2.6 14.84 7.08 28.24 13.34 39.72z" fill="#d3e4e6"/><path d="m280.019 178.477c-46.93 16.55-99.8 57.6-139.28 122.24-39.96 65.43-53.25 133.35-44.33 184.29a154.539 154.539 0 0 1 -35.09-65.04 151.439 151.439 0 0 1 -4.73-32.28c4.45-1.95 8.93-6.37 12.29-12.9.01-.02.02-.03.02-.05 14.8-27.96 27.5-52.3 56.2-91 26.13-35.26 43.04-51.63 49.51-59.04 6.31-7.25 7.68-15.36 4.58-20.32a252.276 252.276 0 0 1 45.47-17.26 247.021 247.021 0 0 1 55.36-8.64z" fill="#fff8ed"/><path d="m595.891 309.419c-.03.011-.07.021-.1.031l-.01.009a23.469 23.469 0 0 1 -29.681-14.769l-.3-.88a23.5 23.5 0 0 1 44.49-15.16l.34.99a23.493 23.493 0 0 1 -14.739 29.779z" fill="#ff6d6d"/><path d="m588.361 311.669a24.5 24.5 0 0 1 -23.207-16.658l-.3-.879a24.462 24.462 0 0 1 15.294-31.089 24.491 24.491 0 0 1 31.09 15.285l.339.987a24.495 24.495 0 0 1 -15.366 31.052l-.037.011c-.025.011-.05.021-.076.03a24.324 24.324 0 0 1 -7.737 1.261zm-.286-47.948a22.507 22.507 0 0 0 -21.327 29.767l.3.879a22.469 22.469 0 0 0 28.331 14.172 1 1 0 0 1 .1-.04l.094-.029a22.492 22.492 0 0 0 14.107-28.51l-.338-.985a22.528 22.528 0 0 0 -21.27-15.254z" fill="#670a39"/><path d="m595.891 309.419c-.03.011-.07.021-.1.031a23.513 23.513 0 0 0 8.84-26.81l-.34-.99a23.489 23.489 0 0 0 -29.69-14.7 23.533 23.533 0 0 1 35.69 11.7l.34.99a23.493 23.493 0 0 1 -14.74 29.779z" fill="#df5468"/><path d="m588.362 311.669a24.489 24.489 0 0 1 -23.207-16.66l-.3-.88a24.5 24.5 0 0 1 46.383-15.8l.334.984a24.517 24.517 0 0 1 -23.212 32.354zm-.334-47.939a22.5 22.5 0 0 0 -21.278 29.756l.3.882a22.5 22.5 0 0 0 42.631-14.412l-.333-.981a22.544 22.544 0 0 0 -21.32-15.245z" fill="#670a39"/></svg>